<?xml version="1.0" ?><svg viewBox="0 0 24 24" xmlns="http://www.w3.org/2000/svg"><title/><g data-name="Total Commander" id="Total_Commander"><g data-name="&lt;Group&gt;" id="_Group_"><path d="M22.5,4.5V21A1.5,1.5,0,0,1,21,22.5H3A1.5,1.5,0,0,1,1.5,21V3A1.5,1.5,0,0,1,3,1.5H19.5Z" data-name="&lt;Path&gt;" id="_Path_" style="fill:none;stroke:#303c42;stroke-linecap:round;stroke-linejoin:round"/><path d="M7.5,1.5h11a0,0,0,0,1,0,0V8A1.5,1.5,0,0,1,17,9.5H9A1.5,1.5,0,0,1,7.5,8V1.5A0,0,0,0,1,7.5,1.5Z" data-name="&lt;Rectangle&gt;" id="_Rectangle_" style="fill:none;stroke:#303c42;stroke-linecap:round;stroke-linejoin:round"/><rect data-name="&lt;Rectangle&gt;" height="4" id="_Rectangle_2" style="fill:none;stroke:#303c42;stroke-linecap:round;stroke-linejoin:round" width="2" x="14.5" y="3.5"/><rect data-name="&lt;Rectangle&gt;" height="10" id="_Rectangle_3" style="fill:none;stroke:#303c42;stroke-linecap:round;stroke-linejoin:round" width="15" x="4.5" y="12.5"/><line data-name="&lt;Path&gt;" id="_Path_2" style="fill:none;stroke:#303c42;stroke-linecap:round;stroke-linejoin:round" x1="6.5" x2="17.5" y1="14.5" y2="14.5"/><line data-name="&lt;Path&gt;" id="_Path_3" style="fill:none;stroke:#303c42;stroke-linecap:round;stroke-linejoin:round" x1="6.5" x2="17.5" y1="16.5" y2="16.5"/><line data-name="&lt;Path&gt;" id="_Path_4" style="fill:none;stroke:#303c42;stroke-linecap:round;stroke-linejoin:round" x1="6.5" x2="17.5" y1="18.5" y2="18.5"/><line data-name="&lt;Path&gt;" id="_Path_5" style="fill:none;stroke:#303c42;stroke-linecap:round;stroke-linejoin:round" x1="4.5" x2="19.5" y1="20.5" y2="20.5"/></g></g></svg>